<svg width="32" height="32" viewBox="0 0 32 32" fill="none" xmlns="http://www.w3.org/2000/svg">
<path d="M14.4034 17.9545H16.4943L17.5455 19.3068L18.5795 20.5114L20.5284 22.9545H18.233L16.892 21.3068L16.2045 20.3295L14.4034 17.9545ZM20.7045 16.1818C20.7045 17.4508 20.464 18.5303 19.983 19.4205C19.5057 20.3106 18.8542 20.9905 18.0284 21.4602C17.2064 21.9261 16.2822 22.1591 15.2557 22.1591C14.2216 22.1591 13.2936 21.9242 12.4716 21.4545C11.6496 20.9848 11 20.3049 10.5227 19.4148C10.0455 18.5246 9.80682 17.447 9.80682 16.1818C9.80682 14.9129 10.0455 13.8333 10.5227 12.9432C11 12.053 11.6496 11.375 12.4716 10.9091C13.2936 10.4394 14.2216 10.2045 15.2557 10.2045C16.2822 10.2045 17.2064 10.4394 18.0284 10.9091C18.8542 11.375 19.5057 12.053 19.983 12.9432C20.464 13.8333 20.7045 14.9129 20.7045 16.1818ZM18.2102 16.1818C18.2102 15.3598 18.0871 14.6667 17.8409 14.1023C17.5985 13.5379 17.2557 13.1098 16.8125 12.8182C16.3693 12.5265 15.8504 12.3807 15.2557 12.3807C14.661 12.3807 14.142 12.5265 13.6989 12.8182C13.2557 13.1098 12.911 13.5379 12.6648 14.1023C12.4223 14.6667 12.3011 15.3598 12.3011 16.1818C12.3011 17.0038 12.4223 17.697 12.6648 18.2614C12.911 18.8258 13.2557 19.2538 13.6989 19.5455C14.142 19.8371 14.661 19.983 15.2557 19.983C15.8504 19.983 16.3693 19.8371 16.8125 19.5455C17.2557 19.2538 17.5985 18.8258 17.8409 18.2614C18.0871 17.697 18.2102 17.0038 18.2102 16.1818Z" fill="#1A1A1A"/>
</svg>
